<svg width="71" height="80" viewBox="0 0 71 80" fill="none" xmlns="http://www.w3.org/2000/svg">
<path d="M3 29.4255L4.76837e-07 29.4255L4.76837e-07 29.4255L3 29.4255ZM3 50.32L6 50.32L6 50.32L3 50.32ZM10.6921 15.7515L12.2498 18.3154L12.2498 18.3154L10.6921 15.7515ZM27.8516 5.32597L29.4093 7.88985L29.4093 7.88985L27.8516 5.32597ZM44.8021 5.53506L46.4226 3.01039L46.4226 3.01039L44.8021 5.53506ZM60.6427 15.7025L59.0222 18.2272L59.0222 18.2272L60.6427 15.7025ZM60.4547 64.1601L62.04 66.7071L62.04 66.7071L60.4547 64.1601ZM44.6193 74.0163L46.2046 76.5633L46.2046 76.5633L44.6193 74.0163ZM28.0429 74.218L29.5657 71.6332L29.5657 71.6332L28.0429 74.218ZM10.8783 64.1054L9.35543 66.6901L9.35543 66.6901L10.8783 64.1054ZM3 29.4255L4.76837e-07 29.4255L2.6498e-06 50.32L3 50.32L6 50.32L6 29.4255L3 29.4255ZM10.6921 15.7515L9.1344 13.1876C3.4627 16.6335 1.86749e-07 22.7891 4.76837e-07 29.4255L3 29.4255L6 29.4255C6 24.8848 8.36922 20.6731 12.2498 18.3154L10.6921 15.7515ZM27.8516 5.32597L26.2939 2.76209L9.1344 13.1876L10.6921 15.7515L12.2498 18.3154L29.4093 7.88985L27.8516 5.32597ZM44.8021 5.53506L46.4226 3.01039C40.3117 -0.911963 32.4996 -1.00833 26.2939 2.76209L27.8516 5.32597L29.4093 7.88985C33.6554 5.31009 39.0005 5.37602 43.1816 8.05974L44.8021 5.53506ZM60.6427 15.7025L62.2632 13.1779L46.4226 3.01039L44.8021 5.53506L43.1816 8.05974L59.0222 18.2272L60.6427 15.7025ZM68 29.1675H71C71 22.6977 67.7078 16.6726 62.2632 13.1779L60.6427 15.7025L59.0222 18.2272C62.7475 20.6183 65 24.7408 65 29.1675H68ZM68 50.5764H71V29.1675H68H65V50.5764H68ZM60.4547 64.1601L62.04 66.7071C67.6123 63.2388 71 57.14 71 50.5764H68H65C65 55.0673 62.6821 59.2401 58.8695 61.6132L60.4547 64.1601ZM44.6193 74.0163L46.2046 76.5633L62.04 66.7071L60.4547 64.1601L58.8695 61.6132L43.0341 71.4694L44.6193 74.0163ZM28.0429 74.218L26.52 76.8027C32.6146 80.3934 40.1992 80.3011 46.2046 76.5633L44.6193 74.0163L43.0341 71.4694C38.9251 74.0268 33.7356 74.09 29.5657 71.6332L28.0429 74.218ZM10.8783 64.1054L9.35543 66.6901L26.52 76.8027L28.0429 74.218L29.5657 71.6332L12.4011 61.5206L10.8783 64.1054ZM3 50.32H2.6498e-06C2.6498e-06 57.0483 3.55842 63.2748 9.35543 66.6901L10.8783 64.1054L12.4011 61.5206C8.43471 59.1838 6 54.9235 6 50.32H3ZM48 39.637H45C45 44.8837 40.7467 49.137 35.5 49.137V52.137V55.137C44.0604 55.137 51 48.1974 51 39.637H48ZM35.5 27.137V30.137C40.7467 30.137 45 34.3903 45 39.637H48H51C51 31.0766 44.0604 24.137 35.5 24.137V27.137ZM23 39.637H26C26 34.3903 30.2533 30.137 35.5 30.137V27.137V24.137C26.9396 24.137 20 31.0766 20 39.637H23ZM35.5 52.137V49.137C30.2533 49.137 26 44.8837 26 39.637H23H20C20 48.1974 26.9396 55.137 35.5 55.137V52.137Z" fill="white"/>
</svg>
