<svg version="1.2" xmlns="http://www.w3.org/2000/svg" viewBox="0 0 71 80" width="71" height="80">
	<title>icon</title>
	<style>
		.s0 { fill: #000000 } 
		.s1 { fill: #ffffff } 
	</style>
	<path id="Shape 1" fill-rule="evenodd" class="s0" d="m35.5 75c-19.6 0-35.5-15.9-35.5-35.5 0-19.6 15.9-35.5 35.5-35.5 19.6 0 35.5 15.9 35.5 35.5 0 19.6-15.9 35.5-35.5 35.5z"/>
	<path class="s1" d="m13 33.6h-2v13.9h2 2v-13.9zm0 13.9h-2c0 4.4 2.4 8.6 6.2 10.8l1-1.7 1-1.7c-2.6-1.5-4.2-4.4-4.2-7.4zm5.1-23l-1-1.7c-3.8 2.3-6.1 6.4-6.1 10.8h2 2c0-3.1 1.6-5.9 4.1-7.4zm11.4-7l-1-1.7-11.4 7 1 1.7 1.1 1.7 11.4-6.9zm11.2 0.1l1.1-1.7c-4-2.6-9.2-2.7-13.4-0.2l1.1 1.8 1 1.7c2.8-1.8 6.4-1.7 9.2 0.1zm10.5 6.7l1.1-1.6-10.6-6.8-1 1.7-1.1 1.6 10.5 6.8zm-0.1 32.2l1.1 1.7c3.7-2.3 5.9-6.3 5.9-10.7h-2-2c0 3-1.5 5.8-4.1 7.3zm-10.5 6.6l1.1 1.7 10.5-6.6-1.1-1.7-1-1.7-10.5 6.6zm-11.1 0.1l-1 1.7c4.1 2.4 9.1 2.4 13.1-0.1l-1-1.7-1.1-1.7c-2.7 1.7-6.2 1.7-8.9 0.1zm-11.5-6.7l-1 1.7 11.4 6.7 1.1-1.7 1-1.7-11.4-6.7zm-5.3-23.1h-2zm5.1-9.1l1.1 1.7zm11.4-6.9l1 1.7zm11.3 0.1l1.1-1.6zm15.4 15.7h2c0-4.3-2.2-8.3-5.8-10.7l-1.1 1.7-1.1 1.7c2.5 1.6 4 4.3 4 7.3zm-4.9-9l-1.1 1.7zm4.9 23.2h2v-14.3h-2-2v14.3zm-5 9l1.1 1.7zm-10.6 6.6l1.1 1.7zm-11 0.1l1-1.7zm-11.4-6.8l-1 1.8zm-5.3-9.2h2zm29.9-7.1h-2c0 3.5-2.8 6.3-6.3 6.3v2 2c5.7 0 10.3-4.6 10.3-10.3zm-8.3-8.3v2c3.5 0 6.3 2.8 6.3 6.3h2 2c0-5.7-4.6-10.3-10.3-10.3zm-8.3 8.3h2c0-3.5 2.8-6.3 6.3-6.3v-2-2c-5.7 0-10.3 4.6-10.3 10.3zm8.3 8.3v-2c-3.5 0-6.3-2.8-6.3-6.3h-2-2c0 5.7 4.6 10.3 10.3 10.3z"/>
</svg>